<svg width="1920" height="1080" xmlns="http://www.w3.org/2000/svg">
  <rect width="100%" height="100%" fill="#EFEFF4"/>
  
  <g fill="none" stroke="#D1D1D6" stroke-width="2" opacity="0.5">
    <path d="M 100 100 L 130 130 M 130 100 L 100 130" stroke-linecap="round"/>
    <circle cx="200" cy="200" r="15"/>
    <path d="M 300 300 Q 320 280 340 300" stroke-linecap="round"/>
    <path d="M 400 150 L 420 150 M 410 140 L 410 160" stroke-linecap="round"/>
    
    <path d="M 500 400 L 530 430 M 530 400 L 500 430" stroke-linecap="round"/>
    <circle cx="650" cy="500" r="15"/>
    <path d="M 800 250 Q 820 230 840 250" stroke-linecap="round"/>
    <path d="M 900 600 L 920 600 M 910 590 L 910 610" stroke-linecap="round"/>
    
    <path d="M 1200 800 L 1230 830 M 1230 800 L 1200 830" stroke-linecap="round"/>
    <circle cx="1400" cy="150" r="15"/>
    <path d="M 1600 900 Q 1620 880 1640 900" stroke-linecap="round"/>
    <path d="M 200 950 L 220 950 M 210 940 L 210 960" stroke-linecap="round"/>
  </g>
</svg>